<svg xmlns="http://www.w3.org/2000/svg" width="16" height="16" viewBox="0 0 16 16">
  <g fill="none" fill-rule="evenodd" transform="translate(-192 -160)">
    <path fill="#ffffff" d="M196.898653,168.101347 L205,160 L208,160 L208,163 L207,164 L205,164 L205,166 L203,166 L203,168 L201,168 L201,170 L199.898653,171.101347 C199.964966,171.390212 200,171.691014 200,172 C200,174.209139 198.209139,176 196,176 C193.790861,176 192,174.209139 192,172 C192,169.790861 193.790861,168 196,168 C196.308986,168 196.609788,168.035034 196.898653,168.101347 Z M194,175 C194.552285,175 195,174.552285 195,174 C195,173.447715 194.552285,173 194,173 C193.447715,173 193,173.447715 193,174 C193,174.552285 193.447715,175 194,175 Z"/>
  </g>
</svg>
